<?xml version="1.0" encoding="utf-8"?>
<!-- Generator: Adobe Illustrator 16.0.0, SVG Export Plug-In . SVG Version: 6.00 Build 0)  -->
<!DOCTYPE svg PUBLIC "-//W3C//DTD SVG 1.1//EN" "http://www.w3.org/Graphics/SVG/1.1/DTD/svg11.dtd">
<svg version="1.1" id="Capa_1" xmlns="http://www.w3.org/2000/svg" xmlns:xlink="http://www.w3.org/1999/xlink" x="0px" y="0px"
	 width="442.608px" height="202.609px" viewBox="0 0 442.608 202.609" enable-background="new 0 0 442.608 202.609"
	 xml:space="preserve">
<g>
	<g>
		<path fill="#FDB62F" d="M173.921,61.143c-0.51-2.914-2.31-5.442-4.897-6.877c-2.393-1.471-5.337-1.736-7.954-0.716
			c0-0.206,0.062-0.403,0.062-0.612c0.045-5.296-4.211-9.626-9.507-9.672c-1.179-0.01-2.349,0.197-3.452,0.612
			c0-0.207,0.062-0.404,0.062-0.613c0-5.343-4.331-9.673-9.673-9.673c0-5.342-4.331-9.673-9.674-9.673
			c-0.209,0-0.406,0.048-0.612,0.061c0.866-2.211,0.812-4.679-0.155-6.849c-1.387-3.336-4.471-5.661-8.061-6.074
			c-2.971-0.256-5.892,0.883-7.906,3.082c-1.811-5.014-7.343-7.612-12.358-5.801c-3.844,1.388-6.396,5.046-6.375,9.132
			c0.009-5.333-4.308-9.665-9.64-9.674c-3.325-0.005-6.42,1.7-8.191,4.515c-2.106-1.234-4.611-1.598-6.983-1.015
			c-3.7,0.913-6.535,3.891-7.268,7.631c-0.547,2.984,0.35,6.052,2.419,8.271c-3.065,0.201-5.852,1.853-7.497,4.447
			c-2.386-1.398-5.266-1.675-7.874-0.758c-2.781,0.96-4.979,3.128-5.975,5.897c-0.811,2.223-0.765,4.667,0.129,6.858
			c-4.214,1.125-7.148,4.938-7.158,9.298c0,0.21,0.049,0.407,0.062,0.614c-2.61-1.018-5.546-0.756-7.936,0.706
			c-2.595,1.435-4.401,3.967-4.913,6.887c-0.59,3.859,1.209,7.692,4.553,9.705l1.786,1.438h11.285v12.623h112.852V72.284h14.509
			l-0.451-0.452C171.745,70.467,174.646,65.903,173.921,61.143z"/>
		<path fill="#DE0418" d="M49.891,194.541L21.894,83.965c-1.866-8.082,3.173-16.146,11.255-18.013
			c1.109-0.255,2.242-0.385,3.381-0.385h0.141c7.559-0.001,13.939,5.614,14.9,13.11l17.666,115.863H49.891z"/>
		<path fill="#FCE9CC" d="M69.236,194.541L52.061,82.498c-1.056-8.227,4.758-15.752,12.985-16.809
			c0.635-0.081,1.274-0.122,1.914-0.122h0.536c8.146-0.001,14.808,6.492,15.016,14.636l6.071,114.338H69.236z"/>
		<path fill="#DE0418" d="M82.53,80.973l6.053,113.567h19.346l5.64-113.174c0.432-8.284-5.935-15.348-14.219-15.779
			c-0.257-0.013-0.514-0.021-0.771-0.021h-1.021c-8.295-0.006-15.025,6.713-15.03,15.008C82.526,80.708,82.527,80.84,82.53,80.973
			L82.53,80.973z"/>
		<path fill="#FCE9CC" d="M113.646,79.818l-5.717,114.722h19.347l16.682-111.668c1.264-8.198-4.359-15.868-12.558-17.13
			c-0.757-0.117-1.521-0.175-2.287-0.175h-0.467C120.648,65.567,114.055,71.833,113.646,79.818z"/>
		<path fill="#DE0418" d="M159.518,65.567c8.296,0,15.02,6.724,15.02,15.02c0,1.258-0.158,2.512-0.471,3.73l-27.445,110.224h-19.346
			l17.386-116.237C145.788,70.971,152.1,65.561,159.518,65.567z"/>
		<g>
			<path fill="#FDB62F" d="M33.77,17.202c0.021-5.325-4.279-9.658-9.604-9.678c-3.571-0.014-6.857,1.947-8.54,5.096
				c-0.397-0.065-0.8-0.104-1.203-0.118c-5.342,0-9.673,4.331-9.673,9.673c0,5.342,4.331,9.673,9.673,9.673
				c0.45-0.014,0.898-0.059,1.341-0.136c2.62,4.631,8.499,6.261,13.13,3.641s6.262-8.499,3.641-13.129
				c-0.035-0.062-0.07-0.123-0.106-0.184C33.297,20.575,33.76,18.905,33.77,17.202z"/>
			<path fill="#FDB62F" d="M191.762,23.651c0.021-5.325-4.278-9.658-9.603-9.678c-3.571-0.014-6.857,1.947-8.541,5.097
				c-0.397-0.065-0.799-0.105-1.203-0.12c-5.342,0-9.673,4.331-9.673,9.673c0,5.343,4.331,9.673,9.673,9.673
				c0.45-0.013,0.898-0.059,1.343-0.135c2.619,4.631,8.497,6.261,13.129,3.641c4.631-2.621,6.261-8.499,3.64-13.13
				c-0.034-0.062-0.069-0.123-0.106-0.185C191.29,27.023,191.752,25.354,191.762,23.651z"/>
		</g>
	</g>
	<g>
		<path fill="#444142" d="M281.537,11.398v52.835c0,9.194-3.057,16.32-9.166,21.378c-6.111,5.059-14.115,7.587-24.01,7.587
			c-10.005,0-18.073-2.529-24.202-7.587c-6.129-5.058-9.193-12.184-9.193-21.378V11.398h18.775v52.835
			c0,4.948,1.273,8.612,3.821,10.994c2.547,2.381,6.147,3.572,10.798,3.572c4.615,0,8.17-1.181,10.662-3.544
			c2.492-2.363,3.738-6.037,3.738-11.021V11.398H281.537z"/>
		<path fill="#444142" d="M360.512,58.972c0,9.933-3.146,18.12-9.441,24.562c-6.297,6.444-14.52,9.665-24.674,9.665
			c-10.227,0-18.518-3.221-24.867-9.665c-6.35-6.442-9.525-14.629-9.525-24.562v-14.51c0-9.895,3.166-18.073,9.498-24.535
			c6.332-6.46,14.594-9.692,24.783-9.692c10.117,0,18.352,3.231,24.701,9.692c6.35,6.462,9.525,14.64,9.525,24.535V58.972z
			 M341.848,44.351c0-5.76-1.355-10.485-4.07-14.178c-2.713-3.692-6.545-5.539-11.492-5.539c-5.059,0-8.926,1.837-11.602,5.511
			c-2.678,3.674-4.016,8.41-4.016,14.206v14.621c0,5.834,1.357,10.597,4.07,14.289c2.715,3.693,6.6,5.539,11.658,5.539
			c4.91,0,8.713-1.846,11.408-5.539c2.695-3.691,4.043-8.455,4.043-14.289V44.351z"/>
		<path fill="#444142" d="M434.17,63.735l0.111,0.333c-0.369,9.452-3.166,16.67-8.391,21.655s-12.803,7.477-22.734,7.477
			c-9.969,0-18.074-3.064-24.313-9.193c-6.24-6.129-9.359-14.085-9.359-23.87V43.299c0-9.748,2.998-17.695,9-23.842
			c5.998-6.147,13.799-9.221,23.398-9.221c10.189,0,17.98,2.567,23.371,7.698c5.391,5.132,8.438,12.425,9.139,21.876l-0.111,0.333
			h-18.221c-0.258-5.242-1.432-9.138-3.518-11.686c-2.086-2.547-5.639-3.821-10.66-3.821c-4.246,0-7.588,1.708-10.023,5.123
			c-2.438,3.416-3.656,7.892-3.656,13.43v16.947c0,5.575,1.33,10.08,3.988,13.513c2.658,3.434,6.313,5.151,10.965,5.151
			c4.504,0,7.699-1.2,9.582-3.6c1.883-2.399,2.953-6.221,3.211-11.464H434.17z"/>
	</g>
	<g>
		<path fill="#DE0418" d="M265.42,155.619h-39.21v37.826h-6.591v-80.637h51.45v5.648h-44.859v31.513h39.21V155.619z"/>
		<path fill="#DE0418" d="M291.672,187.796h39.875v5.648h-46.521v-80.637h6.646V187.796z"/>
		<path fill="#DE0418" d="M352.869,193.445h-6.646v-80.637h6.646V193.445z"/>
		<path fill="#DE0418" d="M400.609,147.255l22.762-34.447h8.031l-26.807,39.764l27.691,40.873h-7.92l-23.648-35.556l-23.592,35.556
			h-8.031l27.691-40.873l-26.859-39.764h8.029L400.609,147.255z"/>
	</g>
</g>
<g>
</g>
<g>
</g>
<g>
</g>
<g>
</g>
<g>
</g>
<g>
</g>
</svg>
