<?xml version="1.0" encoding="utf-8"?>
<!-- Generator: Adobe Illustrator 23.0.1, SVG Export Plug-In . SVG Version: 6.00 Build 0)  -->
<svg version="1.1" id="Capa_1" xmlns="http://www.w3.org/2000/svg" xmlns:xlink="http://www.w3.org/1999/xlink" x="0px" y="0px"
	 viewBox="0 0 442.6 202.6" style="enable-background:new 0 0 442.6 202.6;" xml:space="preserve">
<style type="text/css">
	.st0{fill:#FDB62F;}
	.st1{fill:#DE0418;}
	.st2{fill:#FCE9CC;}
</style>
<g>
	<g>
		<path class="st0" d="M173.9,61.1c-0.5-2.9-2.3-5.4-4.9-6.9c-2.4-1.5-5.3-1.7-8-0.7c0-0.2,0.1-0.4,0.1-0.6c0-5.3-4.2-9.6-9.5-9.7
			c-1.2,0-2.3,0.2-3.5,0.6c0-0.2,0.1-0.4,0.1-0.6c0-5.3-4.3-9.7-9.7-9.7c0-5.3-4.3-9.7-9.7-9.7c-0.2,0-0.4,0-0.6,0.1
			c0.9-2.2,0.8-4.7-0.2-6.8c-1.4-3.3-4.5-5.7-8.1-6.1c-3-0.3-5.9,0.9-7.9,3.1c-1.8-5-7.3-7.6-12.4-5.8c-3.8,1.4-6.4,5-6.4,9.1
			c0-5.3-4.3-9.7-9.6-9.7c-3.3,0-6.4,1.7-8.2,4.5c-2.1-1.2-4.6-1.6-7-1c-3.7,0.9-6.5,3.9-7.3,7.6c-0.5,3,0.3,6.1,2.4,8.3
			c-3.1,0.2-5.9,1.9-7.5,4.4c-2.4-1.4-5.3-1.7-7.9-0.8c-2.8,1-5,3.1-6,5.9c-0.8,2.2-0.8,4.7,0.1,6.9c-4.2,1.1-7.1,4.9-7.2,9.3
			c0,0.2,0,0.4,0.1,0.6c-2.6-1-5.5-0.8-7.9,0.7c-2.6,1.4-4.4,4-4.9,6.9c-0.6,3.9,1.2,7.7,4.6,9.7l1.8,1.4h11.3v12.6h112.9V72.3h14.5
			l-0.5-0.5C171.7,70.5,174.6,65.9,173.9,61.1z"/>
		<path class="st1" d="M49.9,194.5L21.9,84c-1.9-8.1,3.2-16.1,11.3-18c1.1-0.3,2.2-0.4,3.4-0.4h0.1c7.6,0,13.9,5.6,14.9,13.1
			l17.7,115.9L49.9,194.5L49.9,194.5z"/>
		<path class="st2" d="M69.2,194.5l-17.2-112c-1.1-8.2,4.8-15.8,13-16.8c0.6-0.1,1.3-0.1,1.9-0.1h0.5c8.1,0,14.8,6.5,15,14.6
			l6.1,114.3H69.2z"/>
		<path class="st1" d="M82.5,81l6.1,113.6h19.3l5.6-113.2c0.4-8.3-5.9-15.3-14.2-15.8c-0.3,0-0.5,0-0.8,0h-1c-8.3,0-15,6.7-15,15
			C82.5,80.7,82.5,80.8,82.5,81L82.5,81z"/>
		<path class="st2" d="M113.6,79.8l-5.7,114.7h19.3L144,82.9c1.3-8.2-4.4-15.9-12.6-17.1c-0.8-0.1-1.5-0.2-2.3-0.2h-0.5
			C120.6,65.6,114.1,71.8,113.6,79.8z"/>
		<path class="st1" d="M159.5,65.6c8.3,0,15,6.7,15,15c0,1.3-0.2,2.5-0.5,3.7l-27.4,110.2h-19.3l17.4-116.2
			C145.8,71,152.1,65.6,159.5,65.6z"/>
		<g>
			<path class="st0" d="M33.8,17.2c0-5.3-4.3-9.7-9.6-9.7c-3.6,0-6.9,1.9-8.5,5.1c-0.4-0.1-0.8-0.1-1.2-0.1c-5.3,0-9.7,4.3-9.7,9.7
				s4.3,9.7,9.7,9.7c0.4,0,0.9-0.1,1.3-0.1c2.6,4.6,8.5,6.3,13.1,3.6s6.3-8.5,3.6-13.1c0-0.1-0.1-0.1-0.1-0.2
				C33.3,20.6,33.8,18.9,33.8,17.2z"/>
			<path class="st0" d="M191.8,23.7c0-5.3-4.3-9.7-9.6-9.7c-3.6,0-6.9,1.9-8.5,5.1c-0.4-0.1-0.8-0.1-1.2-0.1c-5.3,0-9.7,4.3-9.7,9.7
				c0,5.3,4.3,9.7,9.7,9.7c0.4,0,0.9-0.1,1.3-0.1c2.6,4.6,8.5,6.3,13.1,3.6c4.6-2.6,6.3-8.5,3.6-13.1c0-0.1-0.1-0.1-0.1-0.2
				C191.3,27,191.8,25.4,191.8,23.7z"/>
		</g>
	</g>
	<g>
		<path d="M281.5,11.4v52.8c0,9.2-3.1,16.3-9.2,21.4c-6.1,5.1-14.1,7.6-24,7.6c-10,0-18.1-2.5-24.2-7.6S215,73.4,215,64.2V11.4h18.8
			v52.8c0,4.9,1.3,8.6,3.8,11c2.5,2.4,6.1,3.6,10.8,3.6c4.6,0,8.2-1.2,10.7-3.5c2.5-2.4,3.7-6,3.7-11V11.4H281.5z"/>
		<path d="M360.5,59c0,9.9-3.1,18.1-9.4,24.6c-6.3,6.4-14.5,9.7-24.7,9.7c-10.2,0-18.5-3.2-24.9-9.7c-6.4-6.4-9.5-14.6-9.5-24.6
			V44.5c0-9.9,3.2-18.1,9.5-24.5c6.3-6.5,14.6-9.7,24.8-9.7c10.1,0,18.4,3.2,24.7,9.7c6.4,6.5,9.5,14.6,9.5,24.5L360.5,59L360.5,59z
			 M341.8,44.4c0-5.8-1.4-10.5-4.1-14.2c-2.7-3.7-6.5-5.5-11.5-5.5c-5.1,0-8.9,1.8-11.6,5.5c-2.7,3.7-4,8.4-4,14.2V59
			c0,5.8,1.4,10.6,4.1,14.3c2.7,3.7,6.6,5.5,11.7,5.5c4.9,0,8.7-1.8,11.4-5.5c2.7-3.7,4-8.5,4-14.3L341.8,44.4L341.8,44.4z"/>
		<path d="M434.2,63.7l0.1,0.3c-0.4,9.5-3.2,16.7-8.4,21.7s-12.8,7.5-22.7,7.5c-10,0-18.1-3.1-24.3-9.2c-6.2-6.1-9.4-14.1-9.4-23.9
			V43.3c0-9.7,3-17.7,9-23.8c6-6.1,13.8-9.2,23.4-9.2c10.2,0,18,2.6,23.4,7.7c5.4,5.1,8.4,12.4,9.1,21.9l-0.1,0.3h-18.2
			c-0.3-5.2-1.4-9.1-3.5-11.7c-2.1-2.5-5.6-3.8-10.7-3.8c-4.2,0-7.6,1.7-10,5.1c-2.4,3.4-3.7,7.9-3.7,13.4v16.9
			c0,5.6,1.3,10.1,4,13.5c2.7,3.4,6.3,5.2,11,5.2c4.5,0,7.7-1.2,9.6-3.6c1.9-2.4,3-6.2,3.2-11.5L434.2,63.7L434.2,63.7z"/>
	</g>
	<g>
		<path class="st1" d="M265.4,155.6h-39.2v37.8h-6.6v-80.6h51.5v5.6h-44.9V150h39.2V155.6z"/>
		<path class="st1" d="M291.7,187.8h39.9v5.6H285v-80.6h6.6V187.8z"/>
		<path class="st1" d="M352.9,193.4h-6.6v-80.6h6.6V193.4z"/>
		<path class="st1" d="M400.6,147.3l22.8-34.4h8l-26.8,39.8l27.7,40.9h-7.9l-23.6-35.6l-23.6,35.6h-8l27.7-40.9l-26.9-39.8h8
			L400.6,147.3z"/>
	</g>
</g>
</svg>
