<?xml version="1.0" encoding="utf-8"?>
<!-- Generator: Adobe Illustrator 16.0.0, SVG Export Plug-In . SVG Version: 6.00 Build 0)  -->
<!DOCTYPE svg PUBLIC "-//W3C//DTD SVG 1.1//EN" "http://www.w3.org/Graphics/SVG/1.1/DTD/svg11.dtd">
<svg version="1.1" id="Isolation_Mode" xmlns="http://www.w3.org/2000/svg" xmlns:xlink="http://www.w3.org/1999/xlink" x="0px"
	 y="0px" width="1176px" height="192px" viewBox="0 0 1176 192" enable-background="new 0 0 1176 192" xml:space="preserve">
<g>
	<path d="M343.621,18.756h18.382l37.654,61.199l37.875-61.199h18.135l-46.909,75.992l50.01,81.281h-18.378l-40.837-66.369
		l-40.968,66.369H340.2l50.24-81.18L343.621,18.756z"/>
	<path d="M560.125,14.8c23.82,0,43.755,7.949,59.802,23.842C635.975,54.538,644,74.104,644,97.339
		c0,23.024-8.006,42.553-24.019,58.59c-16.012,16.038-35.536,24.056-58.573,24.056c-23.323,0-43.008-7.982-59.056-23.949
		c-16.047-15.965-24.071-35.282-24.071-57.948c0-15.11,3.655-29.116,10.965-42.018c7.311-12.9,17.277-23.003,29.901-30.311
		C531.772,18.454,545.431,14.8,560.125,14.8z M560.819,30.089c-11.637,0-22.667,3.032-33.09,9.096
		c-10.424,6.064-18.563,14.231-24.417,24.502c-5.854,10.272-8.781,21.721-8.781,34.347c0,18.69,6.479,34.474,19.436,47.349
		c12.957,12.876,28.575,19.313,46.852,19.313c12.207,0,23.505-2.96,33.893-8.88c10.387-5.921,18.49-14.016,24.308-24.288
		c5.818-10.272,8.729-21.686,8.729-34.242c0-12.482-2.91-23.772-8.729-33.865c-5.818-10.094-14.011-18.171-24.576-24.235
		C583.878,33.122,572.67,30.089,560.819,30.089z"/>
	<path d="M675.433,18.756h31.327c17.961,0,30.078,0.785,36.351,2.352c8.981,2.21,16.321,6.754,22.024,13.632
		c5.702,6.879,8.553,15.521,8.553,25.927c0,10.478-2.78,19.121-8.339,25.927c-5.56,6.808-13.223,11.386-22.987,13.739
		c-7.128,1.71-20.458,2.565-39.986,2.565h-11.226v73.13h-15.717V18.756z M691.149,34.152v53.351l26.622,0.321
		c10.762,0,18.638-0.977,23.628-2.934c4.988-1.956,8.909-5.122,11.76-9.497c2.85-4.374,4.277-9.265,4.277-14.672
		c0-5.262-1.427-10.082-4.277-14.457c-2.852-4.375-6.612-7.487-11.279-9.337c-4.669-1.849-12.313-2.774-22.934-2.774H691.149z"/>
	<path d="M802.876,18.756h15.717v157.272h-15.717V18.756z"/>
	<path d="M854.73,176.029V18.756h3.421l104.67,120.557V18.756h15.502v157.272h-3.528L870.981,56.938v119.09H854.73z"/>
	<path d="M1163.074,47.944l-12.402,9.516c-6.843-8.909-15.059-15.663-24.644-20.261c-9.587-4.597-20.119-6.896-31.593-6.896
		c-12.546,0-24.163,3.012-34.854,9.034c-10.691,6.024-18.978,14.113-24.858,24.27s-8.821,21.58-8.821,34.267
		c0,19.174,6.575,35.175,19.726,48.005c13.151,12.83,29.739,19.245,49.769,19.245c22.025,0,40.449-8.624,55.275-25.874l12.402,9.409
		c-7.842,9.98-17.625,17.694-29.349,23.147c-11.726,5.453-24.823,8.179-39.291,8.179c-27.514,0-49.218-9.158-65.112-27.477
		c-13.33-15.466-19.993-34.142-19.993-56.024c0-23.022,8.072-42.392,24.216-58.108c16.145-15.717,36.368-23.575,60.675-23.575
		c14.682,0,27.939,2.905,39.772,8.714C1145.824,29.324,1155.518,37.466,1163.074,47.944z"/>
</g>
<g>
	<g>
		<path fill="#74B6D0" d="M105.564,78.559h163.362c5.823,0,10.544-4.721,10.544-10.544s-4.721-10.544-10.544-10.544H105.564
			c-5.823,0-10.544,4.721-10.544,10.544S99.741,78.559,105.564,78.559z"/>
	</g>
	<g>
		<path fill="#19226D" d="M138.747,141.878h106.991c5.823,0,10.543-4.721,10.543-10.544s-4.721-10.544-10.543-10.544H138.747
			c-5.823,0-10.544,4.721-10.544,10.544S132.924,141.878,138.747,141.878z"/>
	</g>
	<g>
		<path fill="#3772B4" d="M123.487,109.321h134.198c5.823,0,10.544-4.721,10.544-10.544c0-5.823-4.721-10.543-10.544-10.543H123.487
			c-5.823,0-10.543,4.721-10.543,10.543C112.944,104.6,117.664,109.321,123.487,109.321z"/>
	</g>
	<g>
		<path fill="#74B6D0" d="M103.788,78.409l152.494,30.684c5.74,0.982,11.189-2.875,12.171-8.615
			c0.982-5.74-2.875-11.189-8.615-12.171L107.344,57.624c-5.74-0.982-11.189,2.875-12.171,8.615S98.048,77.427,103.788,78.409z"/>
	</g>
	<g>
		<path fill="#3772B4" d="M121.765,109.171l122.794,32.479c5.74,0.982,11.189-2.875,12.171-8.615
			c0.982-5.74-2.875-11.189-8.615-12.171L125.321,88.385c-5.74-0.982-11.189,2.875-12.171,8.615
			C112.167,102.74,116.024,108.189,121.765,109.171z"/>
	</g>
	<g>
		<path d="M22.627,35.007h67.136c5.823,0,10.544-4.72,10.544-10.543c0-5.824-4.721-10.544-10.544-10.544H22.627
			c-5.823,0-10.544,4.72-10.544,10.544C12.083,30.287,16.804,35.007,22.627,35.007z"/>
	</g>
	<g>
		<path d="M82.758,31.406l12.598,14.719c3.834,4.383,10.496,4.827,14.878,0.993c4.382-3.834,4.827-10.496,0.992-14.878
			L98.629,17.521c-3.834-4.383-10.496-4.827-14.878-0.993C79.368,20.362,78.924,27.023,82.758,31.406z"/>
	</g>
	<g>
		<circle cx="163.839" cy="164.352" r="16.873"/>
	</g>
	<g>
		<circle cx="222.457" cy="164.352" r="16.873"/>
	</g>
</g>
<g>
</g>
<g>
</g>
</svg>
